<svg width="219.000000" height="40.000000" viewBox="0 0 219 40" fill="none" xmlns="http://www.w3.org/2000/svg" xmlns:xlink="http://www.w3.org/1999/xlink">
	<desc>
			Created with Pixso.
	</desc>
	<defs>
		<clipPath id="clip5_2">
			<rect id="brain-generator-idea-svgrepo-com" width="40.000000" height="40.000000" fill="white" fill-opacity="0"/>
		</clipPath>
	</defs>
	<path id="cloverchat" d="M153.38 7.4C158.77 7.4 162.83 10.5 163.48 15.87L158.5 15.87C158.13 13.32 156.19 11.75 153.5 11.75C149.9 11.75 147.53 14.52 147.53 19.36C147.53 24.34 149.93 26.96 153.46 26.96C156.08 26.96 158.04 25.53 158.5 23.04L163.48 23.07C162.95 27.35 159.35 31.32 153.38 31.32C147.15 31.32 142.54 26.95 142.54 19.36C142.54 11.75 147.23 7.4 153.38 7.4ZM64.72 7.72L69.56 7.72L69.56 31L64.72 31L64.72 7.72ZM175.13 17.34C173.15 17.34 171.78 18.65 171.77 20.9L171.77 31L166.93 31L166.93 7.72L171.63 7.72L171.63 16.62L171.84 16.62C172.63 14.57 174.4 13.32 177.05 13.32C180.69 13.32 183.1 15.79 183.09 19.88L183.09 31L178.25 31L178.25 20.75C178.25 18.6 177.1 17.34 175.13 17.34ZM211.47 13.54L214.76 13.54L214.76 17.17L211.47 17.17L211.47 25.63C211.47 26.97 212.14 27.34 213.11 27.34C213.56 27.34 214.07 27.22 214.31 27.17L215.07 30.78C214.59 30.94 213.7 31.19 212.45 31.24C208.94 31.38 206.61 29.69 206.63 26.27L206.63 17.17L204.24 17.17L204.24 13.54L206.63 13.54L206.63 9.36L211.47 9.36L211.47 13.54ZM134.62 31L129.78 31L129.78 13.54L134.47 13.54L134.47 16.59L134.65 16.59C135.29 14.42 136.89 13.29 138.85 13.29C139.34 13.29 139.94 13.36 140.37 13.46L140.37 17.75C139.92 17.61 139 17.5 138.32 17.5C136.19 17.5 134.62 18.97 134.62 21.12L134.62 31ZM61.61 24.6C61.38 28.61 58.46 31.34 53.82 31.34C48.44 31.34 45.22 27.64 45.22 22.34C45.22 16.99 48.5 13.32 53.79 13.32C58.35 13.32 61.4 15.96 61.61 20L57.04 20C56.78 18.25 55.64 17.09 53.87 17.09C51.62 17.09 50.14 18.97 50.14 22.27C50.14 25.61 51.61 27.5 53.87 27.5C55.53 27.5 56.75 26.46 57.04 24.6L61.61 24.6ZM89.9 22.34C89.9 27.71 86.61 31.34 81.32 31.34C76.02 31.34 72.72 27.71 72.72 22.34C72.72 16.92 76.02 13.32 81.32 13.32C86.61 13.32 89.9 16.92 89.9 22.34ZM126.52 26C125.84 29.24 122.93 31.34 118.61 31.34C113.23 31.34 109.95 27.88 109.95 22.35C109.95 16.96 113.28 13.32 118.42 13.32C123.03 13.32 126.62 16.25 126.62 22.17L126.62 23.5L114.73 23.5L114.73 23.52C114.73 26.12 116.27 27.72 118.69 27.72C120.3 27.72 121.55 27.03 122.04 25.7L126.52 26ZM196.98 28.57C196.13 30.2 194.46 31.32 191.88 31.32C188.55 31.32 186.09 29.57 186.09 26.12C186.09 22.22 189.19 21.07 192.64 20.75C195.68 20.45 196.87 20.3 196.87 19.17L196.87 19.11C196.87 17.67 195.93 16.85 194.28 16.85C192.54 16.85 191.5 17.7 191.18 18.86L186.7 18.5C187.37 15.32 190.12 13.32 194.3 13.32C198.19 13.32 201.71 15.07 201.71 19.22L201.71 31L197.12 31L197.12 28.57L196.98 28.57ZM103.63 13.54L108.76 13.54L102.65 31L97.2 31L91.1 13.54L96.21 13.54L99.83 26.03L100.02 26.03L103.63 13.54ZM118.5 16.92C116.35 16.92 114.84 18.52 114.73 20.5L122.07 20.5C122.05 18.42 120.6 16.92 118.5 16.92ZM77.64 22.3C77.64 25.35 78.89 27.59 81.34 27.59C83.74 27.59 84.99 25.35 84.99 22.3C84.99 19.25 83.74 17 81.34 17C78.89 17 77.64 19.25 77.64 22.3ZM190.71 25.96C190.71 27.29 191.78 27.99 193.27 27.99C195.39 27.99 196.9 26.59 196.9 24.75L196.9 22.9C196.32 23.29 194.6 23.54 193.54 23.69C191.84 23.92 190.71 24.6 190.71 25.96Z" fill="#E2E3E4" fill-opacity="1.000000" fill-rule="evenodd"/>
	<path id="cloverchat" d="M53.82 31.34C58.46 31.34 61.38 28.61 61.61 24.6L57.04 24.6C56.75 26.46 55.53 27.5 53.87 27.5C51.61 27.5 50.14 25.61 50.14 22.27C50.14 18.97 51.62 17.09 53.87 17.09C55.64 17.09 56.78 18.25 57.04 20L61.61 20C61.4 15.96 58.35 13.32 53.79 13.32C48.5 13.32 45.22 16.99 45.22 22.34C45.22 27.64 48.44 31.34 53.82 31.34ZM69.56 7.72L64.72 7.72L64.72 31L69.56 31L69.56 7.72ZM81.32 31.34C86.61 31.34 89.9 27.71 89.9 22.34C89.9 16.92 86.61 13.32 81.32 13.32C76.02 13.32 72.72 16.92 72.72 22.34C72.72 27.71 76.02 31.34 81.32 31.34ZM81.34 27.59C78.89 27.59 77.64 25.35 77.64 22.3C77.64 19.25 78.89 17 81.34 17C83.74 17 84.99 19.25 84.99 22.3C84.99 25.35 83.74 27.59 81.34 27.59ZM108.76 13.54L103.63 13.54L100.02 26.03L99.83 26.03L96.21 13.54L91.1 13.54L97.2 31L102.65 31L108.76 13.54ZM118.61 31.34C122.93 31.34 125.84 29.24 126.52 26L122.04 25.7C121.55 27.03 120.3 27.72 118.69 27.72C116.27 27.72 114.73 26.12 114.73 23.52L114.73 23.5L126.62 23.5L126.62 22.17C126.62 16.25 123.03 13.32 118.42 13.32C113.28 13.32 109.95 16.96 109.95 22.35C109.95 27.88 113.23 31.34 118.61 31.34ZM114.73 20.5C114.84 18.52 116.35 16.92 118.5 16.92C120.6 16.92 122.05 18.42 122.07 20.5L114.73 20.5ZM129.78 31L134.62 31L134.62 21.12C134.62 18.97 136.19 17.5 138.32 17.5C139 17.5 139.92 17.61 140.37 17.75L140.37 13.46C139.94 13.36 139.34 13.29 138.85 13.29C136.89 13.29 135.29 14.42 134.65 16.59L134.47 16.59L134.47 13.54L129.78 13.54L129.78 31ZM163.48 15.87C162.83 10.5 158.77 7.4 153.38 7.4C147.23 7.4 142.54 11.75 142.54 19.36C142.54 26.95 147.15 31.32 153.38 31.32C159.35 31.32 162.95 27.35 163.48 23.07L158.5 23.04C158.04 25.53 156.08 26.96 153.46 26.96C149.93 26.96 147.53 24.34 147.53 19.36C147.53 14.52 149.9 11.75 153.5 11.75C156.19 11.75 158.13 13.32 158.5 15.87L163.48 15.87ZM171.77 20.9C171.78 18.65 173.15 17.34 175.13 17.34C177.1 17.34 178.25 18.6 178.25 20.75L178.25 31L183.09 31L183.09 19.88C183.1 15.79 180.69 13.32 177.05 13.32C174.4 13.32 172.63 14.57 171.84 16.62L171.63 16.62L171.63 7.72L166.93 7.72L166.93 31L171.77 31L171.77 20.9ZM191.88 31.32C194.46 31.32 196.13 30.2 196.98 28.57L197.12 28.57L197.12 31L201.71 31L201.71 19.22C201.71 15.07 198.19 13.32 194.3 13.32C190.12 13.32 187.37 15.32 186.7 18.5L191.18 18.86C191.5 17.7 192.54 16.85 194.28 16.85C195.93 16.85 196.87 17.67 196.87 19.11L196.87 19.17C196.87 20.3 195.68 20.45 192.64 20.75C189.19 21.07 186.09 22.22 186.09 26.12C186.09 29.57 188.55 31.32 191.88 31.32ZM193.27 27.99C191.78 27.99 190.71 27.29 190.71 25.96C190.71 24.6 191.84 23.92 193.54 23.69C194.6 23.54 196.32 23.29 196.9 22.9L196.9 24.75C196.9 26.59 195.39 27.99 193.27 27.99ZM214.76 13.54L211.47 13.54L211.47 9.36L206.63 9.36L206.63 13.54L204.24 13.54L204.24 17.17L206.63 17.17L206.63 26.27C206.61 29.69 208.94 31.38 212.45 31.24C213.7 31.19 214.59 30.94 215.07 30.78L214.31 27.17C214.07 27.22 213.56 27.34 213.11 27.34C212.14 27.34 211.47 26.97 211.47 25.63L211.47 17.17L214.76 17.17L214.76 13.54Z" stroke="#E2E3E4" stroke-opacity="1.000000" stroke-width="1.000000"/>
	<g clip-path="url(#clip5_2)">
		<path id="path" d="M19.29 10.38C19.36 12.4 19.54 30.03 19.33 31.26C19.15 32.37 18.44 34.36 17.09 34.57C15.75 34.78 14.87 33.77 14.47 33.63C14.06 33.5 12.94 34.18 12.06 33.58C11.17 32.97 11.37 31.39 11.12 31.12C10.87 30.85 9.5 31.17 8.85 30.27C8.19 29.36 8.76 28.39 8.55 28.13C8.35 27.87 6.32 27.63 6.04 25.51C5.71 23.08 7.66 22.61 7.65 22.23C7.64 21.85 6.04 19.78 6.85 17.24C7.66 14.7 9.8 14.43 9.92 14.2C10.05 13.97 9.07 12.57 10.36 10.55C11.64 8.54 13.5 9.08 13.77 8.9C14.03 8.72 13.72 7.93 14.62 6.8C15.44 5.76 17.02 5.5 18.17 6.16C19.2 6.76 19.22 8.36 19.29 10.38Z" fill="#E2E3E4" fill-opacity="1.000000" fill-rule="nonzero"/>
		<path id="path" d="M16.72 35.85C15.54 35.85 14.68 35.26 14.19 34.92L14.12 34.93C13.51 35.07 12.39 35.32 11.35 34.62C10.42 33.98 10.19 32.93 10.08 32.19C9.42 32.11 8.48 31.89 7.84 31C7.39 30.37 7.21 29.67 7.29 28.9C5.1 27.84 4.89 26.28 4.8 25.68C4.53 23.64 5.46 22.52 6.15 21.92C5.69 20.9 4.97 19.02 5.66 16.86C5.88 16.13 6.23 15.47 6.73 14.88C7.22 14.3 7.82 13.84 8.5 13.5C8.36 12.66 8.35 11.38 9.3 9.88C10.4 8.18 11.86 7.81 12.78 7.73C12.94 7.1 13.22 6.53 13.64 6.03C14.83 4.52 17.1 4.11 18.79 5.09C20.4 6.01 20.46 8.02 20.53 10.15L20.53 10.34C20.58 11.84 20.8 30.03 20.56 31.47C20.26 33.28 19.22 35.51 17.28 35.81C17.1 35.84 16.91 35.85 16.72 35.85ZM14.35 32.37C14.51 32.37 14.68 32.4 14.84 32.45C15.11 32.55 15.37 32.68 15.6 32.86C16.07 33.18 16.44 33.41 16.9 33.33C17.33 33.26 17.92 32.13 18.1 31.05C18.28 29.77 18.12 12.67 18.04 10.42L18.04 10.22C18 9 17.95 7.47 17.55 7.24C16.92 6.88 16.03 7.04 15.6 7.58C15.33 7.89 15.18 8.25 15.15 8.66C15.11 8.98 15.02 9.58 14.45 9.95C14.09 10.19 13.72 10.2 13.4 10.2C12.8 10.21 12.05 10.23 11.41 11.23C10.74 12.29 10.94 13.02 11.07 13.51C11.16 13.83 11.3 14.31 11.01 14.82C10.77 15.24 10.4 15.4 10.08 15.53C9.49 15.77 8.51 16.18 8.05 17.62C7.58 19.11 8.2 20.41 8.58 21.18C8.76 21.56 8.9 21.84 8.91 22.19C8.93 22.94 8.39 23.35 8.07 23.6C7.6 23.97 7.15 24.31 7.29 25.36C7.4 26.2 7.95 26.49 8.65 26.78C8.97 26.92 9.3 27.05 9.56 27.38C9.95 27.89 9.87 28.46 9.82 28.84C9.78 29.21 9.76 29.39 9.87 29.55C9.97 29.68 10.39 29.72 10.66 29.75C11.1 29.79 11.65 29.85 12.06 30.3C12.4 30.68 12.46 31.13 12.53 31.6C12.56 31.83 12.64 32.45 12.78 32.56C12.91 32.65 13.31 32.56 13.57 32.5C13.82 32.43 14.08 32.39 14.35 32.37Z" fill="#E2E3E4" fill-opacity="1.000000" fill-rule="nonzero"/>
		<path id="path" d="M20.67 9.97C20.56 12 20.37 29.72 20.56 30.96C20.72 32.07 21.02 33.32 22.68 34.12C23.93 34.72 25.12 33.74 25.51 33.61C25.9 33.48 26.84 33.65 27.75 33.06C28.66 32.47 29.05 31.14 29.3 31C29.55 30.86 30.74 30.98 31.42 30.08C32.11 29.18 31.55 28.24 31.63 27.94C31.71 27.65 33.49 27.3 33.82 25.37C34.24 23 32.31 22.37 32.25 22.05C32.2 21.72 33.7 20.6 33.24 18.37C32.72 15.92 31.14 15.63 31.02 15.33C30.9 15.03 31.83 14.26 31.35 12.86C30.87 11.47 29.63 11.5 29.45 11.2C29.27 10.9 29.71 10.14 28.95 9.2C28.16 8.22 26.56 8.72 26.29 8.57C26.03 8.43 26.04 7.46 25.12 6.48C24.4 5.72 22.83 5.33 21.79 6.21C20.87 7 20.78 7.94 20.67 9.97Z" fill="#E2E3E4" fill-opacity="1.000000" fill-rule="nonzero"/>
		<path id="path" d="M23.52 35.56C23.03 35.56 22.57 35.46 22.13 35.24C19.76 34.09 19.46 32.1 19.32 31.14C19.11 29.72 19.32 11.67 19.42 9.9C19.52 7.96 19.6 6.43 20.98 5.26C22.54 3.93 24.85 4.37 26.02 5.62C26.49 6.12 26.85 6.68 27.09 7.32C27.88 7.3 29.09 7.39 29.92 8.41C30.41 8.99 30.65 9.66 30.66 10.42C31.11 10.61 31.49 10.88 31.81 11.24C32.14 11.59 32.38 12 32.53 12.45C32.82 13.26 32.82 14.06 32.52 14.87C33.18 15.37 34.08 16.29 34.46 18.11C34.6 18.74 34.61 19.37 34.5 20.01C34.4 20.65 34.18 21.24 33.84 21.8C34.52 22.44 35.4 23.62 35.05 25.59C34.76 27.25 33.68 28.1 32.98 28.54C33.04 28.94 33.03 29.34 32.93 29.74C32.83 30.14 32.66 30.5 32.42 30.83C31.69 31.79 30.67 32.02 30.05 32.12C29.75 32.67 29.27 33.55 28.43 34.1C27.52 34.69 26.62 34.75 26.09 34.79L25.89 34.8L25.77 34.87C25.34 35.11 24.51 35.56 23.52 35.56ZM23.22 6.95C22.98 6.95 22.78 7.02 22.59 7.16C22.11 7.57 22.01 8 21.91 10.03C21.8 12.06 21.63 29.53 21.79 30.78C21.93 31.73 22.12 32.46 23.23 33C23.6 33.18 24.06 32.96 24.58 32.68C24.75 32.58 24.93 32.49 25.12 32.42C25.38 32.35 25.65 32.31 25.92 32.3C26.31 32.28 26.7 32.25 27.06 32.02C27.39 31.8 27.67 31.27 27.87 30.91C28.09 30.5 28.28 30.13 28.69 29.91C28.94 29.78 29.21 29.71 29.49 29.68C29.91 29.62 30.25 29.56 30.43 29.33C30.55 29.17 30.54 29.01 30.45 28.61C30.36 28.28 30.35 27.95 30.42 27.62C30.58 27.03 31.03 26.78 31.4 26.57C32 26.24 32.46 25.92 32.6 25.17C32.78 24.11 32.28 23.72 31.8 23.35C31.51 23.12 31.11 22.81 31.02 22.25C30.92 21.69 31.21 21.25 31.45 20.9C31.78 20.41 32.24 19.74 32.01 18.62C31.73 17.31 31.12 16.93 30.68 16.65C30.39 16.47 30.04 16.25 29.86 15.79C29.62 15.19 29.87 14.66 30.02 14.34C30.19 14 30.32 13.73 30.16 13.27C30.02 12.87 29.8 12.76 29.38 12.59C29.07 12.47 28.64 12.29 28.37 11.84C28.17 11.48 28.1 11.1 28.15 10.69C28.17 10.39 28.18 10.24 27.98 9.99C27.82 9.79 27.19 9.82 26.86 9.83C26.46 9.85 26.08 9.87 25.69 9.66C25.17 9.38 25 8.9 24.86 8.5C24.73 8.07 24.52 7.68 24.21 7.34C23.93 7.08 23.6 6.96 23.22 6.95Z" fill="#E2E3E4" fill-opacity="1.000000" fill-rule="nonzero"/>
		<path id="path" d="M19.29 10.38C19.36 12.4 19.54 30.03 19.33 31.26C19.15 32.37 18.44 34.36 17.09 34.57C15.75 34.78 14.87 33.77 14.47 33.63C14.06 33.5 12.94 34.18 12.06 33.58C11.17 32.97 11.37 31.39 11.12 31.12C10.87 30.85 9.5 31.17 8.85 30.27C8.19 29.36 8.76 28.39 8.55 28.13C8.35 27.87 6.32 27.63 6.04 25.51C5.71 23.08 7.66 22.61 7.65 22.23C7.64 21.85 6.04 19.78 6.85 17.24C7.66 14.7 9.8 14.43 9.92 14.2C10.05 13.97 9.07 12.57 10.36 10.55C11.64 8.54 13.5 9.08 13.77 8.9C14.03 8.72 13.72 7.93 14.62 6.8C15.44 5.76 17.02 5.5 18.17 6.16C19.2 6.76 19.22 8.36 19.29 10.38Z" fill="#E2E3E4" fill-opacity="1.000000" fill-rule="nonzero"/>
		<path id="path" d="M20.67 9.97C20.56 12 20.37 29.72 20.56 30.96C20.72 32.07 21.02 33.32 22.68 34.12C23.93 34.72 25.12 33.74 25.51 33.61C25.9 33.48 26.84 33.65 27.75 33.06C28.66 32.47 29.05 31.14 29.3 31C29.55 30.86 30.74 30.98 31.42 30.08C32.11 29.18 31.55 28.24 31.63 27.94C31.71 27.65 33.49 27.3 33.82 25.37C34.24 23 32.31 22.37 32.25 22.05C32.2 21.72 33.7 20.6 33.24 18.37C32.72 15.92 31.14 15.63 31.02 15.33C30.9 15.03 31.83 14.26 31.35 12.86C30.87 11.47 29.63 11.5 29.45 11.2C29.27 10.9 29.71 10.14 28.95 9.2C28.16 8.22 26.56 8.72 26.29 8.57C26.03 8.43 26.04 7.46 25.12 6.48C24.4 5.72 22.83 5.33 21.79 6.21C20.87 7 20.78 7.94 20.67 9.97Z" fill="#E2E3E4" fill-opacity="1.000000" fill-rule="nonzero"/>
		<path id="path" d="M23.77 11.87C23.07 11.38 15.68 18.88 15.92 19.49C16.16 20.1 18.56 20.07 18.89 20.44C19.21 20.82 16.27 27.39 16.82 27.82C17.23 28.13 24.6 20.91 24.49 20.26C24.38 19.61 22.41 19.73 21.97 19.32C21.54 18.91 24.27 12.22 23.77 11.87Z" fill="#E83A2A" fill-opacity="1.000000" fill-rule="nonzero"/>
		<path id="path" d="M1.74 22.99C2.08 22.99 4.16 22.44 4.5 22.23C4.84 22.02 4.44 20.83 4.17 20.78C3.91 20.73 1.71 21.36 1.41 21.55C1.11 21.73 1.4 23 1.74 22.99Z" fill="#E2E3E4" fill-opacity="1.000000" fill-rule="nonzero"/>
		<path id="path" d="M1.3 15.3C1.04 15.03 1.39 13.98 1.8 13.97C2.2 13.97 4.13 14.61 4.37 14.84C4.61 15.06 4.33 16.12 3.87 16.16C3.42 16.21 1.59 15.6 1.3 15.3Z" fill="#E2E3E4" fill-opacity="1.000000" fill-rule="nonzero"/>
		<path id="path" d="M5.39 10.5C5.22 10.16 5.88 9.27 6.26 9.39C6.65 9.51 7.5 10.15 7.64 10.43C7.78 10.72 7.2 11.64 6.76 11.54C6.31 11.45 5.57 10.87 5.39 10.5Z" fill="#E2E3E4" fill-opacity="1.000000" fill-rule="nonzero"/>
		<path id="path" d="M3.75 30.7C3.37 30.68 2.92 29.67 3.21 29.39C3.5 29.11 4.46 28.69 4.79 28.7C5.12 28.72 5.63 29.67 5.33 30.01C5.03 30.36 4.16 30.72 3.75 30.7Z" fill="#E2E3E4" fill-opacity="1.000000" fill-rule="nonzero"/>
		<path id="path" d="M37.76 16.31C37.51 16.28 36.08 16.6 35.81 16.77C35.54 16.95 35.95 18.13 36.14 18.2C36.33 18.28 37.86 17.89 38.09 17.73C38.33 17.58 38.02 16.33 37.76 16.31Z" fill="#E2E3E4" fill-opacity="1.000000" fill-rule="nonzero"/>
		<path id="path" d="M34.35 13.82C33.97 13.8 33.51 12.8 33.8 12.51C34.09 12.23 35.93 11.37 36.26 11.38C36.58 11.39 37.13 12.29 36.83 12.63C36.53 12.97 34.77 13.83 34.35 13.82Z" fill="#E2E3E4" fill-opacity="1.000000" fill-rule="nonzero"/>
		<path id="path" d="M39.06 22.18C39.38 22.38 39.28 23.49 38.89 23.59C38.49 23.69 36.47 23.52 36.19 23.35C35.91 23.17 35.93 22.1 36.36 21.94C36.79 21.78 38.7 21.96 39.06 22.18Z" fill="#E2E3E4" fill-opacity="1.000000" fill-rule="nonzero"/>
		<path id="path" d="M37.2 27.75C37.47 28.02 37.12 29.07 36.72 29.08C36.31 29.08 35.38 28.74 35.15 28.51C34.92 28.28 35.19 27.23 35.64 27.18C36.09 27.13 36.91 27.45 37.2 27.75Z" fill="#E2E3E4" fill-opacity="1.000000" fill-rule="nonzero"/>
	</g>
</svg>
